<svg width="30" height="30" viewBox="0 0 30 30" fill="none" xmlns="http://www.w3.org/2000/svg">
<circle cx="15" cy="15" r="15" transform="rotate(-180 15 15)" fill="#F6F6F6"/>
<path d="M17.785 20.2064L12.71 15.0002L17.785 9.7939C17.8758 9.70088 17.9267 9.57601 17.9267 9.44598C17.9267 9.31596 17.8758 9.19109 17.785 9.09807C17.7408 9.05303 17.6882 9.01725 17.63 8.99282C17.5719 8.96839 17.5095 8.95581 17.4464 8.95581C17.3834 8.95581 17.321 8.96839 17.2628 8.99282C17.2047 9.01725 17.152 9.05303 17.1079 9.09807L11.7079 14.6366C11.6131 14.7339 11.56 14.8643 11.56 15.0002C11.56 15.136 11.6131 15.2664 11.7079 15.3637L17.1068 20.9022C17.151 20.9476 17.2038 20.9836 17.2621 21.0083C17.3205 21.0329 17.3831 21.0456 17.4464 21.0456C17.5097 21.0456 17.5724 21.0329 17.6307 21.0083C17.689 20.9836 17.7419 20.9476 17.786 20.9022C17.8769 20.8092 17.9277 20.6843 17.9277 20.5543C17.9277 20.4243 17.8769 20.2994 17.786 20.2064H17.785Z" fill="#323232"/>
</svg>
