<svg width="30" height="30" viewBox="0 0 30 30" fill="none" xmlns="http://www.w3.org/2000/svg">
<circle cx="15" cy="15" r="15" fill="#F6F6F6"/>
<path d="M12.215 9.7936L17.29 14.9998L12.215 20.2061C12.1242 20.2991 12.0733 20.424 12.0733 20.554C12.0733 20.684 12.1242 20.8089 12.215 20.9019C12.2592 20.947 12.3118 20.9828 12.37 21.0072C12.4281 21.0316 12.4905 21.0442 12.5536 21.0442C12.6166 21.0442 12.679 21.0316 12.7372 21.0072C12.7953 20.9828 12.848 20.947 12.8921 20.9019L18.2921 15.3634C18.3869 15.2661 18.44 15.1357 18.44 14.9998C18.44 14.864 18.3869 14.7336 18.2921 14.6363L12.8932 9.09776C12.849 9.0524 12.7962 9.01635 12.7379 8.99174C12.6795 8.96712 12.6169 8.95444 12.5536 8.95444C12.4903 8.95444 12.4276 8.96712 12.3693 8.99174C12.311 9.01635 12.2581 9.0524 12.214 9.09776C12.1231 9.19078 12.0723 9.31565 12.0723 9.44568C12.0723 9.57571 12.1231 9.70058 12.214 9.7936H12.215Z" fill="#323232"/>
</svg>
